# xmcd
#
# Track frame offsets:
#  150
#  13858
#  26626
#  36276
#  45821
#  57303
#  70006
#  81286
#  92621
#  103641
#  113946
#  129371
#  141151
#  152183
#  165911
#  178766
#  190480
#  201691
#
# Disc length: 2836 seconds
#
# Revision: 0
# Processed by: cddbd v1.5.1PL2 Copyright (c) Steve Scherf et al.
# Submitted via: Collectorz.com_Music_Collector 6.9
#
DISCID=f60b1212
DTITLE=Frankie Laine - Favourites
DYEAR=1900
DGENRE=Country
TTITLE0=Cool water
TTITLE1=That lucky old sun
TTITLE2=Gunfight at the OK corral
TTITLE3=Blazing saddles
TTITLE4=Mule train
TTITLE5=Granada
TTITLE6=Along the Navajo trail
TTITLE7=Love is a golden ring
TTITLE8=Call of the wind
TTITLE9=The hanging tree
TTITLE10=Tumbling tumbleweeds
TTITLE11=Wanted man
TTITLE12=The 3:10 to Yuma
TTITLE13=Riders in the sky
TTITLE14=The cry of the wild goose
TTITLE15=Strange lady in town
TTITLE16=Rose rose I love you
TTITLE17=North to Alaska
EXTD=
EXTT0=
EXTT1=
EXTT2=
EXTT3=
EXTT4=
EXTT5=
EXTT6=
EXTT7=
EXTT8=
EXTT9=
EXTT10=
EXTT11=
EXTT12=
EXTT13=
EXTT14=
EXTT15=
EXTT16=
EXTT17=
PLAYORDER=
